# Blender v2.79 (sub 0) OBJ File: ''
# www.blender.org
mtllib ram.mtl
o Ram
v 86.762001 12.700000 -4.589353
v 86.762001 12.700000 0.000000
v 99.492821 12.700000 0.000000
v 135.612228 12.700000 -12.547941
v 139.699997 12.700000 -6.273971
v 139.699997 12.700000 -14.903287
v 119.012825 12.700000 -6.273971
v 139.699997 12.700000 -28.091442
v 139.699997 12.700000 -40.639999
v 137.066833 12.700000 -28.091442
v 119.012825 12.700000 -40.639999
v 137.066833 12.700000 -14.903287
v 137.066833 12.700000 -18.884539
v 135.612228 12.700000 -28.092058
v 139.699997 12.700000 -18.884539
v 139.699997 12.700000 -23.736963
v 137.066833 12.700000 -23.736963
v 121.933411 12.700000 -12.547941
v 121.933411 12.700000 -28.092058
v 82.907059 12.700000 0.000000
v 82.907059 12.700000 -4.589353
v 79.972824 12.700000 -6.273971
v 99.492821 12.700000 -6.273971
v 18.492233 12.700000 -28.092058
v 21.412823 12.700000 -40.639999
v 4.813410 12.700000 -28.092058
v 2.406702 12.700000 -40.639999
v 2.406702 12.700000 -18.884539
v 2.633169 12.700000 -18.884539
v 2.633169 12.700000 -23.736963
v 4.813410 12.700000 -12.547941
v 2.633169 12.700000 -28.091442
v 21.412823 12.700000 -6.273971
v 18.492233 12.700000 -12.547941
v 2.406702 12.700000 -6.273971
v 2.633169 12.700000 -14.903287
v 2.406702 12.700000 -14.903287
v 0.000000 12.700000 -14.903287
v 0.000000 12.700000 -6.273971
v 2.406702 12.700000 -23.736963
v 0.000000 12.700000 -23.736963
v 0.000000 12.700000 -18.884539
v 2.406702 12.700000 -28.091442
v 0.000000 12.700000 -40.639999
v 0.000000 12.700000 -28.091442
v 102.413414 12.700000 -12.547941
v 102.413414 12.700000 -28.092058
v 96.572235 12.700000 -12.547941
v 82.893410 12.700000 -12.547941
v 82.893410 12.700000 -28.092058
v 96.572235 12.700000 -28.092058
v 99.492821 12.700000 -40.639999
v 79.972824 12.700000 -40.639999
v 116.092232 12.700000 -12.547941
v 116.092232 12.700000 -28.092058
v 60.452824 12.700000 -6.273971
v 63.373409 12.700000 -12.547941
v 63.373409 12.700000 -28.092058
v 57.532234 12.700000 -12.547941
v 40.932823 12.700000 -6.273971
v 43.853413 12.700000 -12.547941
v 43.853413 12.700000 -28.092058
v 57.532234 12.700000 -28.092058
v 60.452824 12.700000 -40.639999
v 40.932823 12.700000 -40.639999
v 77.052238 12.700000 -12.547941
v 77.052238 12.700000 -28.092058
v 24.333410 12.700000 -12.547941
v 24.333410 12.700000 -28.092058
v 38.012234 12.700000 -12.547941
v 38.012234 12.700000 -28.092058
v 119.012825 12.700000 0.000000
v 139.699997 12.700000 0.000000
v 79.972824 12.700000 0.000000
v 60.452824 12.700000 0.000000
v 40.932823 12.700000 0.000000
v 21.412823 12.700000 0.000000
v 2.406702 12.700000 0.000000
v 0.000000 12.700000 0.000000
v 139.699997 2.540000 -18.884539
v 139.699997 2.540000 -23.736963
v 139.699997 2.540000 -40.639999
v 139.699997 2.540000 -28.091442
v 139.699997 2.540000 0.000000
v 139.699997 2.540000 -6.273971
v 139.699997 2.540000 -14.903287
v 82.907059 2.540000 -4.589353
v 82.907059 2.540000 0.000000
v 79.972824 2.540000 0.000000
v 2.406702 2.540000 -6.273971
v 0.000000 2.540000 -6.273971
v 0.000000 2.540000 -14.903287
v 121.933411 2.540000 -28.092058
v 119.012825 2.540000 -40.639999
v 135.612228 2.540000 -28.092058
v 137.066833 2.540000 -28.091442
v 137.066833 2.540000 -23.736963
v 135.612228 2.540000 -12.547941
v 137.066833 2.540000 -18.884539
v 137.066833 2.540000 -14.903287
v 121.933411 2.540000 -12.547941
v 119.012825 2.540000 -6.273971
v 18.492233 2.540000 -28.092058
v 4.813410 2.540000 -28.092058
v 2.406702 2.540000 -40.639999
v 21.412823 2.540000 -6.273971
v 4.813410 2.540000 -12.547941
v 18.492233 2.540000 -12.547941
v 21.412823 2.540000 -40.639999
v 0.000000 2.540000 -28.091442
v 0.000000 2.540000 -40.639999
v 2.406702 2.540000 -28.091442
v 2.633169 2.540000 -28.091442
v 0.000000 2.540000 -18.884539
v 0.000000 2.540000 -23.736963
v 2.406702 2.540000 -18.884539
v 2.406702 2.540000 -23.736963
v 2.633169 2.540000 -18.884539
v 2.633169 2.540000 -23.736963
v 2.406702 2.540000 -14.903287
v 2.633169 2.540000 -14.903287
v 86.762001 2.540000 0.000000
v 86.762001 2.540000 -4.589353
v 99.492821 2.540000 -6.273971
v 79.972824 2.540000 -6.273971
v 119.012825 2.540000 0.000000
v 99.492821 2.540000 0.000000
v 0.000000 2.540000 0.000000
v 2.406702 2.540000 0.000000
v 21.412823 2.540000 0.000000
v 40.932823 2.540000 0.000000
v 40.932823 2.540000 -6.273971
v 60.452824 2.540000 0.000000
v 60.452824 2.540000 -6.273971
v 102.413414 2.540000 -12.547941
v 116.092232 2.540000 -12.547941
v 116.092232 2.540000 -28.092058
v 102.413414 2.540000 -28.092058
v 99.492821 2.540000 -40.639999
v 82.893410 2.540000 -12.547941
v 96.572235 2.540000 -12.547941
v 96.572235 2.540000 -28.092058
v 82.893410 2.540000 -28.092058
v 79.972824 2.540000 -40.639999
v 63.373409 2.540000 -12.547941
v 77.052238 2.540000 -12.547941
v 77.052238 2.540000 -28.092058
v 63.373409 2.540000 -28.092058
v 60.452824 2.540000 -40.639999
v 43.853413 2.540000 -12.547941
v 57.532234 2.540000 -12.547941
v 57.532234 2.540000 -28.092058
v 43.853413 2.540000 -28.092058
v 40.932823 2.540000 -40.639999
v 38.012234 2.540000 -12.547941
v 38.012234 2.540000 -28.092058
v 24.333410 2.540000 -12.547941
v 24.333410 2.540000 -28.092058
v 135.612228 15.240000 -28.092058
v 121.933411 15.240000 -28.092058
v 135.612228 15.240000 -12.547941
v 121.933411 15.240000 -12.547941
v 116.092232 15.240000 -28.092058
v 102.413414 15.240000 -28.092058
v 116.092232 15.240000 -12.547941
v 102.413414 15.240000 -12.547941
v 96.572235 15.240000 -28.092058
v 82.893410 15.240000 -28.092058
v 96.572235 15.240000 -12.547941
v 82.893410 15.240000 -12.547941
v 77.052238 15.240000 -28.092058
v 63.373409 15.240000 -28.092058
v 77.052238 15.240000 -12.547941
v 63.373409 15.240000 -12.547941
v 57.532234 15.240000 -28.092058
v 43.853413 15.240000 -28.092058
v 57.532234 15.240000 -12.547941
v 43.853413 15.240000 -12.547941
v 18.492233 15.240000 -12.547941
v 4.813410 15.240000 -12.547941
v 18.492233 15.240000 -28.092058
v 4.813410 15.240000 -28.092058
v 38.012234 15.240000 -12.547941
v 24.333410 15.240000 -12.547941
v 38.012234 15.240000 -28.092058
v 24.333410 15.240000 -28.092058
v 4.813410 0.000000 -12.547941
v 18.492233 0.000000 -12.547941
v 4.813410 0.000000 -28.092058
v 18.492233 0.000000 -28.092058
v 24.333410 0.000000 -12.547941
v 38.012234 0.000000 -12.547941
v 24.333410 0.000000 -28.092058
v 38.012234 0.000000 -28.092058
v 43.853413 0.000000 -12.547941
v 57.532234 0.000000 -12.547941
v 43.853413 0.000000 -28.092058
v 57.532234 0.000000 -28.092058
v 63.373409 0.000000 -12.547941
v 77.052238 0.000000 -12.547941
v 63.373409 0.000000 -28.092058
v 77.052238 0.000000 -28.092058
v 82.893410 0.000000 -12.547941
v 96.572235 0.000000 -12.547941
v 82.893410 0.000000 -28.092058
v 96.572235 0.000000 -28.092058
v 102.413414 0.000000 -12.547941
v 116.092232 0.000000 -12.547941
v 102.413414 0.000000 -28.092058
v 116.092232 0.000000 -28.092058
v 121.933411 0.000000 -12.547941
v 135.612228 0.000000 -12.547941
v 121.933411 0.000000 -28.092058
v 135.612228 0.000000 -28.092058
vn 0.0000 1.0000 0.0000
vn 1.0000 0.0000 0.0000
vn 0.0000 -1.0000 0.0000
vn -1.0000 0.0000 0.0000
vn 0.0000 0.0000 1.0000
vn 0.0000 0.0000 -1.0000
usemtl None
s off
f 1//1 2//1 3//1
f 4//1 5//1 6//1
f 5//1 4//1 7//1
f 8//1 9//1 10//1
f 10//1 9//1 11//1
f 6//1 12//1 4//1
f 4//1 12//1 13//1
f 4//1 13//1 14//1
f 15//1 16//1 13//1
f 13//1 16//1 17//1
f 13//1 17//1 14//1
f 4//1 18//1 7//1
f 7//1 18//1 19//1
f 7//1 19//1 11//1
f 11//1 19//1 14//1
f 11//1 14//1 10//1
f 10//1 14//1 17//1
f 20//1 21//1 22//1
f 22//1 21//1 1//1
f 22//1 1//1 23//1
f 24//1 25//1 26//1
f 26//1 25//1 27//1
f 28//1 29//1 30//1
f 30//1 29//1 31//1
f 30//1 31//1 32//1
f 33//1 34//1 35//1
f 35//1 34//1 31//1
f 29//1 36//1 31//1
f 31//1 36//1 37//1
f 31//1 37//1 35//1
f 35//1 37//1 38//1
f 35//1 38//1 39//1
f 30//1 40//1 28//1
f 28//1 40//1 41//1
f 28//1 41//1 42//1
f 31//1 26//1 32//1
f 32//1 26//1 27//1
f 32//1 27//1 43//1
f 43//1 27//1 44//1
f 43//1 44//1 45//1
f 23//1 46//1 47//1
f 23//1 48//1 22//1
f 22//1 48//1 49//1
f 22//1 49//1 50//1
f 51//1 52//1 50//1
f 50//1 52//1 53//1
f 50//1 53//1 22//1
f 46//1 23//1 54//1
f 54//1 23//1 7//1
f 54//1 7//1 55//1
f 55//1 7//1 11//1
f 55//1 11//1 47//1
f 47//1 11//1 52//1
f 47//1 52//1 23//1
f 23//1 52//1 51//1
f 23//1 51//1 48//1
f 56//1 57//1 58//1
f 56//1 59//1 60//1
f 60//1 59//1 61//1
f 60//1 61//1 62//1
f 63//1 64//1 62//1
f 62//1 64//1 65//1
f 62//1 65//1 60//1
f 57//1 56//1 66//1
f 66//1 56//1 22//1
f 66//1 22//1 67//1
f 67//1 22//1 53//1
f 67//1 53//1 58//1
f 58//1 53//1 64//1
f 58//1 64//1 56//1
f 56//1 64//1 63//1
f 56//1 63//1 59//1
f 33//1 68//1 69//1
f 68//1 33//1 70//1
f 70//1 33//1 60//1
f 70//1 60//1 71//1
f 71//1 60//1 65//1
f 71//1 65//1 69//1
f 69//1 65//1 25//1
f 69//1 25//1 33//1
f 33//1 25//1 24//1
f 33//1 24//1 34//1
f 1//1 3//1 23//1
f 23//1 3//1 72//1
f 23//1 72//1 7//1
f 7//1 72//1 73//1
f 7//1 73//1 5//1
f 20//1 22//1 74//1
f 74//1 22//1 56//1
f 74//1 56//1 75//1
f 75//1 56//1 60//1
f 75//1 60//1 76//1
f 76//1 60//1 33//1
f 76//1 33//1 77//1
f 77//1 33//1 35//1
f 77//1 35//1 78//1
f 78//1 35//1 39//1
f 78//1 39//1 79//1
f 15//2 80//2 16//2
f 16//2 80//2 81//2
f 82//2 9//2 83//2
f 83//2 9//2 8//2
f 73//2 84//2 5//2
f 5//2 84//2 85//2
f 5//2 85//2 6//2
f 6//2 85//2 86//2
f 87//3 88//3 89//3
f 90//3 91//3 92//3
f 93//3 94//3 95//3
f 95//3 94//3 82//3
f 82//3 83//3 96//3
f 82//3 96//3 95//3
f 95//3 96//3 97//3
f 95//3 97//3 98//3
f 81//3 80//3 97//3
f 97//3 80//3 99//3
f 97//3 99//3 98//3
f 98//3 99//3 100//3
f 100//3 86//3 98//3
f 98//3 86//3 85//3
f 98//3 85//3 101//3
f 101//3 85//3 102//3
f 103//3 104//3 105//3
f 106//3 90//3 107//3
f 107//3 108//3 106//3
f 106//3 108//3 103//3
f 106//3 103//3 109//3
f 109//3 103//3 105//3
f 110//3 111//3 112//3
f 112//3 111//3 105//3
f 112//3 105//3 113//3
f 113//3 105//3 104//3
f 114//3 115//3 116//3
f 116//3 115//3 117//3
f 116//3 117//3 118//3
f 118//3 117//3 119//3
f 92//3 120//3 90//3
f 90//3 120//3 121//3
f 90//3 121//3 107//3
f 107//3 121//3 118//3
f 107//3 118//3 104//3
f 104//3 118//3 119//3
f 104//3 119//3 113//3
f 122//3 123//3 124//3
f 124//3 123//3 125//3
f 85//3 84//3 102//3
f 102//3 84//3 126//3
f 102//3 126//3 124//3
f 124//3 126//3 127//3
f 124//3 127//3 122//3
f 128//3 91//3 129//3
f 129//3 91//3 90//3
f 129//3 90//3 130//3
f 130//3 90//3 106//3
f 130//3 106//3 131//3
f 131//3 106//3 132//3
f 131//3 132//3 133//3
f 133//3 132//3 134//3
f 133//3 134//3 89//3
f 89//3 134//3 125//3
f 89//3 125//3 87//3
f 87//3 125//3 123//3
f 124//3 135//3 102//3
f 102//3 135//3 136//3
f 102//3 136//3 137//3
f 138//3 139//3 137//3
f 137//3 139//3 94//3
f 137//3 94//3 102//3
f 102//3 94//3 93//3
f 102//3 93//3 101//3
f 125//3 140//3 124//3
f 124//3 140//3 141//3
f 124//3 141//3 142//3
f 143//3 144//3 142//3
f 142//3 144//3 139//3
f 142//3 139//3 124//3
f 124//3 139//3 138//3
f 124//3 138//3 135//3
f 134//3 145//3 125//3
f 125//3 145//3 146//3
f 125//3 146//3 147//3
f 148//3 149//3 147//3
f 147//3 149//3 144//3
f 147//3 144//3 125//3
f 125//3 144//3 143//3
f 125//3 143//3 140//3
f 132//3 150//3 134//3
f 134//3 150//3 151//3
f 134//3 151//3 152//3
f 153//3 154//3 152//3
f 152//3 154//3 149//3
f 152//3 149//3 134//3
f 134//3 149//3 148//3
f 134//3 148//3 145//3
f 132//3 155//3 156//3
f 155//3 132//3 157//3
f 157//3 132//3 106//3
f 157//3 106//3 158//3
f 158//3 106//3 109//3
f 158//3 109//3 156//3
f 156//3 109//3 154//3
f 156//3 154//3 132//3
f 132//3 154//3 153//3
f 132//3 153//3 150//3
f 45//4 44//4 110//4
f 110//4 44//4 111//4
f 115//4 114//4 41//4
f 41//4 114//4 42//4
f 79//5 128//5 78//5
f 78//5 128//5 129//5
f 78//5 129//5 77//5
f 77//5 129//5 130//5
f 77//5 130//5 76//5
f 76//5 130//5 131//5
f 76//5 131//5 75//5
f 75//5 131//5 133//5
f 75//5 133//5 74//5
f 74//5 133//5 89//5
f 74//5 89//5 20//5
f 20//5 89//5 88//5
f 159//1 160//1 161//1
f 161//1 160//1 162//1
f 162//4 160//4 18//4
f 18//4 160//4 19//4
f 160//6 159//6 19//6
f 19//6 159//6 14//6
f 159//2 161//2 14//2
f 14//2 161//2 4//2
f 161//5 162//5 4//5
f 4//5 162//5 18//5
f 163//1 164//1 165//1
f 165//1 164//1 166//1
f 166//4 164//4 46//4
f 46//4 164//4 47//4
f 164//6 163//6 47//6
f 47//6 163//6 55//6
f 163//2 165//2 55//2
f 55//2 165//2 54//2
f 165//5 166//5 54//5
f 54//5 166//5 46//5
f 167//1 168//1 169//1
f 169//1 168//1 170//1
f 170//4 168//4 49//4
f 49//4 168//4 50//4
f 168//6 167//6 50//6
f 50//6 167//6 51//6
f 167//2 169//2 51//2
f 51//2 169//2 48//2
f 169//5 170//5 48//5
f 48//5 170//5 49//5
f 171//1 172//1 173//1
f 173//1 172//1 174//1
f 174//4 172//4 57//4
f 57//4 172//4 58//4
f 172//6 171//6 58//6
f 58//6 171//6 67//6
f 171//2 173//2 67//2
f 67//2 173//2 66//2
f 173//5 174//5 66//5
f 66//5 174//5 57//5
f 175//1 176//1 177//1
f 177//1 176//1 178//1
f 178//4 176//4 61//4
f 61//4 176//4 62//4
f 176//6 175//6 62//6
f 62//6 175//6 63//6
f 175//2 177//2 63//2
f 63//2 177//2 59//2
f 177//5 178//5 59//5
f 59//5 178//5 61//5
f 111//6 44//6 105//6
f 105//6 44//6 27//6
f 105//6 27//6 109//6
f 109//6 27//6 25//6
f 109//6 25//6 154//6
f 154//6 25//6 65//6
f 154//6 65//6 149//6
f 149//6 65//6 64//6
f 149//6 64//6 144//6
f 144//6 64//6 53//6
f 144//6 53//6 139//6
f 139//6 53//6 52//6
f 139//6 52//6 94//6
f 94//6 52//6 11//6
f 94//6 11//6 82//6
f 82//6 11//6 9//6
f 38//4 92//4 39//4
f 39//4 92//4 91//4
f 39//4 91//4 79//4
f 79//4 91//4 128//4
f 2//5 122//5 3//5
f 3//5 122//5 127//5
f 3//5 127//5 72//5
f 72//5 127//5 126//5
f 72//5 126//5 73//5
f 73//5 126//5 84//5
f 179//5 180//5 34//5
f 34//5 180//5 31//5
f 181//2 179//2 24//2
f 24//2 179//2 34//2
f 182//6 181//6 26//6
f 26//6 181//6 24//6
f 180//4 182//4 31//4
f 31//4 182//4 26//4
f 181//1 182//1 179//1
f 179//1 182//1 180//1
f 183//5 184//5 70//5
f 70//5 184//5 68//5
f 185//2 183//2 71//2
f 71//2 183//2 70//2
f 186//6 185//6 69//6
f 69//6 185//6 71//6
f 184//4 186//4 68//4
f 68//4 186//4 69//4
f 185//1 186//1 183//1
f 183//1 186//1 184//1
f 20//2 88//2 21//2
f 21//2 88//2 87//2
f 21//5 87//5 1//5
f 1//5 87//5 123//5
f 1//4 123//4 2//4
f 2//4 123//4 122//4
f 42//5 114//5 28//5
f 28//5 114//5 116//5
f 28//5 116//5 29//5
f 29//5 116//5 118//5
f 29//4 118//4 36//4
f 36//4 118//4 121//4
f 36//6 121//6 37//6
f 37//6 121//6 120//6
f 37//6 120//6 38//6
f 38//6 120//6 92//6
f 45//5 110//5 43//5
f 43//5 110//5 112//5
f 43//5 112//5 32//5
f 32//5 112//5 113//5
f 32//4 113//4 30//4
f 30//4 113//4 119//4
f 30//6 119//6 40//6
f 40//6 119//6 117//6
f 40//6 117//6 41//6
f 41//6 117//6 115//6
f 12//6 6//6 100//6
f 100//6 6//6 86//6
f 13//2 12//2 99//2
f 99//2 12//2 100//2
f 15//5 13//5 80//5
f 80//5 13//5 99//5
f 17//6 16//6 97//6
f 97//6 16//6 81//6
f 10//2 17//2 96//2
f 96//2 17//2 97//2
f 8//5 10//5 83//5
f 83//5 10//5 96//5
f 187//5 188//5 107//5
f 107//5 188//5 108//5
f 189//4 187//4 104//4
f 104//4 187//4 107//4
f 190//6 189//6 103//6
f 103//6 189//6 104//6
f 188//2 190//2 108//2
f 108//2 190//2 103//2
f 189//3 190//3 187//3
f 187//3 190//3 188//3
f 191//5 192//5 157//5
f 157//5 192//5 155//5
f 193//4 191//4 158//4
f 158//4 191//4 157//4
f 194//6 193//6 156//6
f 156//6 193//6 158//6
f 192//2 194//2 155//2
f 155//2 194//2 156//2
f 193//3 194//3 191//3
f 191//3 194//3 192//3
f 195//5 196//5 150//5
f 150//5 196//5 151//5
f 197//4 195//4 153//4
f 153//4 195//4 150//4
f 198//6 197//6 152//6
f 152//6 197//6 153//6
f 196//2 198//2 151//2
f 151//2 198//2 152//2
f 197//3 198//3 195//3
f 195//3 198//3 196//3
f 199//5 200//5 145//5
f 145//5 200//5 146//5
f 201//4 199//4 148//4
f 148//4 199//4 145//4
f 202//6 201//6 147//6
f 147//6 201//6 148//6
f 200//2 202//2 146//2
f 146//2 202//2 147//2
f 201//3 202//3 199//3
f 199//3 202//3 200//3
f 203//5 204//5 140//5
f 140//5 204//5 141//5
f 205//4 203//4 143//4
f 143//4 203//4 140//4
f 206//6 205//6 142//6
f 142//6 205//6 143//6
f 204//2 206//2 141//2
f 141//2 206//2 142//2
f 205//3 206//3 203//3
f 203//3 206//3 204//3
f 207//5 208//5 135//5
f 135//5 208//5 136//5
f 209//4 207//4 138//4
f 138//4 207//4 135//4
f 210//6 209//6 137//6
f 137//6 209//6 138//6
f 208//2 210//2 136//2
f 136//2 210//2 137//2
f 209//3 210//3 207//3
f 207//3 210//3 208//3
f 211//5 212//5 101//5
f 101//5 212//5 98//5
f 213//4 211//4 93//4
f 93//4 211//4 101//4
f 214//6 213//6 95//6
f 95//6 213//6 93//6
f 212//2 214//2 98//2
f 98//2 214//2 95//2
f 213//3 214//3 211//3
f 211//3 214//3 212//3
o Cube
v 1.000000 -1.000000 -1.000000
v 1.000000 -1.000000 1.000000
v -1.000000 -1.000000 1.000000
v -1.000000 -1.000000 -1.000000
v 1.000000 1.000000 -0.999999
v 0.999999 1.000000 1.000001
v -1.000000 1.000000 1.000000
v -1.000000 1.000000 -1.000000
vn 0.0000 -1.0000 0.0000
vn 0.0000 1.0000 0.0000
vn 1.0000 0.0000 0.0000
vn -0.0000 -0.0000 1.0000
vn -1.0000 -0.0000 -0.0000
vn 0.0000 0.0000 -1.0000
usemtl Material
s off
f 215//7 216//7 217//7 218//7
f 219//8 222//8 221//8 220//8
f 215//9 219//9 220//9 216//9
f 216//10 220//10 221//10 217//10
f 217//11 221//11 222//11 218//11
f 219//12 215//12 218//12 222//12
