# Blender v2.79 (sub 0) OBJ File: 'PC_Case.blend'
# www.blender.org
mtllib pcCase.mtl
o PC_case
v -53.173149 28.154011 -0.009383
v -53.173149 25.590818 -15.019355
v -53.173149 25.590816 -2.740569
v -53.173149 2.568096 -2.740573
v -53.173149 0.004899 -0.009387
v -53.173149 2.568098 -15.019359
v -53.173149 0.004910 -66.468300
v -53.173149 28.154022 -66.468292
v -0.006000 28.154011 -0.009383
v -0.006000 28.154022 -66.468292
v -0.006000 3.628759 -30.977427
v -0.006000 1.539752 -18.045193
v -0.006000 3.588422 -31.451342
v -0.006000 26.619165 -12.593443
v -0.006000 26.619167 -18.045189
v -0.006000 4.539975 -29.346270
v -0.006000 4.210866 -29.689653
v -0.006000 0.004899 -0.009387
v -0.006000 1.539751 -11.058604
v -0.006000 1.539750 -4.712985
v -0.006000 4.922383 -29.063448
v -0.006000 3.944522 -30.083727
v -0.006000 3.748609 -30.517138
v -0.006000 3.628759 -31.925264
v -0.006000 0.004910 -66.468300
v -0.006000 3.748609 -32.385551
v -0.006000 3.944522 -32.818962
v -0.006000 4.210866 -33.213028
v -0.006000 4.539976 -33.556412
v -0.006000 4.922384 -33.839241
v -0.006000 5.347090 -34.053375
v -0.006000 5.801874 -34.192650
v -0.006000 6.273657 -34.253067
v -0.006000 6.748863 -34.232880
v -0.006000 7.213820 -34.132675
v -0.006000 7.655157 -33.955330
v -0.006000 8.060174 -29.196732
v -0.006000 7.655156 -28.947357
v -0.006000 7.213819 -28.770012
v -0.006000 6.748862 -28.669807
v -0.006000 6.273656 -28.649620
v -0.006000 5.801873 -28.710037
v -0.006000 5.347089 -28.849306
v -0.006000 8.060175 -33.705948
v -0.006000 8.417219 -33.391716
v -0.006000 8.716021 -33.021652
v -0.006000 8.947985 -32.606415
v -0.006000 9.106438 -32.157951
v -0.006000 9.186818 -31.689156
v -0.006000 9.186818 -31.213524
v -0.006000 9.106437 -30.744728
v -0.006000 8.947984 -30.296265
v -0.006000 26.619164 -4.712981
v -0.006000 26.619165 -11.058599
v -0.006000 1.539751 -12.593448
v -0.006000 8.716020 -29.881035
v -0.006000 8.417218 -29.510971
v -2.154788 0.004899 -2.158176
v -2.154788 0.004909 -64.319519
v -51.024361 0.004909 -64.319519
v -51.024361 0.004899 -2.158176
v -2.154788 1.539751 -11.058604
v -2.154788 26.619165 -11.058599
v -2.154788 1.539751 -12.593448
v -2.154788 26.619165 -12.593443
v -2.154788 26.895439 -2.158171
v -2.154788 26.619167 -18.045189
v -2.154788 1.539752 -18.045193
v -2.154788 26.895451 -64.319511
v -2.154788 1.539750 -4.712985
v -2.154788 26.619164 -4.712981
v -51.024361 26.895439 -2.158171
v -51.024361 2.568098 -15.019359
v -51.024361 26.895451 -64.319511
v -51.024361 25.590818 -15.019355
v -51.024361 25.590816 -2.740569
v -51.024361 2.568096 -2.740573
v -1.233878 3.588422 -31.451342
v -1.233878 3.628759 -30.977427
v -1.233878 3.748609 -30.517138
v -1.233878 3.944522 -30.083727
v -1.233878 4.210866 -29.689653
v -1.233878 4.539975 -29.346270
v -1.233878 4.922383 -29.063448
v -1.233878 5.347089 -28.849306
v -1.233878 5.801873 -28.710037
v -1.233878 6.273656 -28.649620
v -1.233878 6.748862 -28.669807
v -1.233878 7.213819 -28.770012
v -1.233878 7.655156 -28.947357
v -1.233878 8.060174 -29.196732
v -1.233878 8.417218 -29.510971
v -1.233878 8.716020 -29.881035
v -1.233878 8.947984 -30.296265
v -1.233878 9.106437 -30.744728
v -1.233878 9.186818 -31.213524
v -1.233878 9.186818 -31.689156
v -1.233878 9.106438 -32.157951
v -1.233878 8.947985 -32.606415
v -1.233878 8.716021 -33.021652
v -1.233878 8.417219 -33.391716
v -1.233878 8.060175 -33.705948
v -1.233878 7.655157 -33.955330
v -1.233878 7.213820 -34.132675
v -1.233878 6.748863 -34.232880
v -1.233878 6.273657 -34.253067
v -1.233878 5.801874 -34.192650
v -1.233878 5.347090 -34.053375
v -1.233878 4.922384 -33.839241
v -1.233878 4.539976 -33.556412
v -1.233878 4.210866 -33.213028
v -1.233878 3.944522 -32.818962
v -1.233878 3.748609 -32.385551
v -1.233878 3.628759 -31.925264
v -1.233878 7.624982 -30.894302
v -1.233878 7.701398 -31.110573
v -1.233878 7.740163 -31.336655
v -1.233878 7.740163 -31.566032
v -1.233878 7.701398 -31.792107
v -1.233878 7.624982 -32.008377
v -1.233878 7.513116 -32.208626
v -1.233878 7.369016 -32.387093
v -1.233878 7.196832 -32.538635
v -1.233878 7.001512 -32.658897
v -1.233878 6.788675 -32.744431
v -1.233878 6.564447 -32.792747
v -1.233878 6.335275 -32.802490
v -1.233878 6.107759 -32.773354
v -1.233878 5.888435 -32.706184
v -1.233878 5.683618 -32.602921
v -1.233878 5.499200 -32.466522
v -1.233878 5.340486 -32.300926
v -1.233878 5.212041 -32.110878
v -1.233878 5.117563 -31.901873
v -1.233878 5.059764 -31.679895
v -1.233878 5.040311 -31.451342
v -1.233878 5.059764 -31.222788
v -1.233878 5.117563 -31.000818
v -1.233878 5.212041 -30.791803
v -1.233878 5.340486 -30.601763
v -1.233878 5.499200 -30.436159
v -1.233878 5.683618 -30.299767
v -1.233878 5.888434 -30.196495
v -1.233878 6.107759 -30.129333
v -1.233878 6.335275 -30.100197
v -1.233878 6.564446 -30.109932
v -1.233878 6.788674 -30.158257
v -1.233878 7.001512 -30.243782
v -1.233878 7.196832 -30.364052
v -1.233878 7.369016 -30.515587
v -1.233878 7.513116 -30.694054
v -0.006000 5.040311 -31.451342
v -0.006000 5.059764 -31.222788
v -0.006000 5.117563 -31.000818
v -0.006000 5.212041 -30.791803
v -0.006000 5.340486 -30.601763
v -0.006000 5.499200 -30.436159
v -0.006000 5.683618 -30.299767
v -0.006000 5.888434 -30.196495
v -0.006000 6.107759 -30.129333
v -0.006000 6.335275 -30.100197
v -0.006000 6.564446 -30.109932
v -0.006000 6.788674 -30.158257
v -0.006000 7.001512 -30.243782
v -0.006000 7.196832 -30.364052
v -0.006000 7.369016 -30.515587
v -0.006000 7.513116 -30.694054
v -0.006000 7.624982 -30.894302
v -0.006000 7.701398 -31.110573
v -0.006000 7.740163 -31.336655
v -0.006000 7.740163 -31.566032
v -0.006000 7.701398 -31.792107
v -0.006000 7.624982 -32.008377
v -0.006000 7.513116 -32.208626
v -0.006000 7.369016 -32.387093
v -0.006000 7.196832 -32.538635
v -0.006000 7.001512 -32.658897
v -0.006000 6.788675 -32.744431
v -0.006000 6.564447 -32.792747
v -0.006000 6.335275 -32.802490
v -0.006000 6.107759 -32.773354
v -0.006000 5.888435 -32.706184
v -0.006000 5.683618 -32.602921
v -0.006000 5.499200 -32.466522
v -0.006000 5.340486 -32.300926
v -0.006000 5.212041 -32.110878
v -0.006000 5.117563 -31.901873
v -0.006000 5.059764 -31.679895
v -0.006000 6.392673 -31.451340
vn -1.0000 -0.0000 0.0000
vn 0.0000 1.0000 0.0000
vn 1.0000 -0.0000 0.0000
vn -0.0000 -1.0000 -0.0000
vn 0.0000 -0.0000 1.0000
vn 0.0000 0.0000 -1.0000
vn 0.0000 0.9964 -0.0848
vn 0.0000 0.9677 -0.2520
vn 0.0000 0.9112 -0.4119
vn 0.0000 0.8285 -0.5600
vn 0.0000 0.7220 -0.6919
vn 0.0000 0.5946 -0.8040
vn 0.0000 0.4502 -0.8929
vn 0.0000 0.2928 -0.9562
vn 0.0000 0.1270 -0.9919
vn 0.0000 -0.0424 -0.9991
vn 0.0000 -0.2107 -0.9776
vn 0.0000 -0.3729 -0.9279
vn 0.0000 -0.5243 -0.8515
vn 0.0000 -0.6607 -0.7507
vn 0.0000 -0.7780 -0.6282
vn 0.0000 -0.8730 -0.4877
vn 0.0000 -0.9429 -0.3331
vn 0.0000 -0.9856 -0.1690
vn 0.0000 -0.9856 0.1690
vn 0.0000 -0.9429 0.3331
vn 0.0000 -0.8730 0.4877
vn 0.0000 -0.7780 0.6282
vn 0.0000 -0.6607 0.7507
vn 0.0000 -0.5243 0.8515
vn 0.0000 -0.3729 0.9279
vn 0.0000 -0.2107 0.9776
vn 0.0000 -0.0424 0.9991
vn 0.0000 0.1270 0.9919
vn 0.0000 0.2928 0.9562
vn 0.0000 0.4502 0.8929
vn 0.0000 0.5946 0.8040
vn 0.0000 0.7220 0.6919
vn 0.0000 0.8285 0.5600
vn 0.0000 0.9112 0.4119
vn 0.0000 0.9677 0.2520
vn 0.0000 0.9964 0.0848
vn 0.0000 -0.9964 0.0848
vn 0.0000 -0.9677 0.2520
vn 0.0000 -0.9112 0.4119
vn 0.0000 -0.8285 0.5600
vn 0.0000 -0.7220 0.6919
vn 0.0000 -0.5946 0.8040
vn 0.0000 -0.4502 0.8929
vn 0.0000 -0.2928 0.9562
vn 0.0000 -0.1270 0.9919
vn 0.0000 0.0424 0.9991
vn 0.0000 0.2107 0.9776
vn 0.0000 0.3729 0.9279
vn 0.0000 0.5243 0.8515
vn 0.0000 0.6607 0.7507
vn 0.0000 0.7780 0.6282
vn 0.0000 0.8730 0.4877
vn 0.0000 0.9429 0.3331
vn 0.0000 0.9429 0.3332
vn 0.0000 0.9856 0.1690
vn 0.0000 0.9856 -0.1690
vn 0.0000 0.9429 -0.3332
vn 0.0000 0.9429 -0.3331
vn 0.0000 0.8730 -0.4877
vn 0.0000 0.7780 -0.6282
vn 0.0000 0.6607 -0.7507
vn 0.0000 0.5243 -0.8515
vn 0.0000 0.3729 -0.9279
vn 0.0000 0.2106 -0.9776
vn 0.0000 0.0425 -0.9991
vn 0.0000 -0.1270 -0.9919
vn 0.0000 -0.2928 -0.9562
vn 0.0000 -0.4502 -0.8929
vn 0.0000 -0.5946 -0.8040
vn 0.0000 -0.7219 -0.6919
vn 0.0000 -0.8285 -0.5600
vn 0.0000 -0.9112 -0.4119
vn 0.0000 -0.9677 -0.2520
vn 0.0000 -0.9964 -0.0848
usemtl None
s 1
f 1//1 2//1 3//1
f 3//1 4//1 1//1
f 4//1 5//1 1//1
f 4//1 6//1 5//1
f 6//1 7//1 5//1
f 6//1 2//1 7//1
f 2//1 8//1 7//1
f 2//1 1//1 8//1
f 9//2 10//2 1//2
f 10//2 8//2 1//2
f 11//3 12//3 13//3
f 14//3 15//3 9//3
f 15//3 10//3 9//3
f 16//3 12//3 17//3
f 18//3 19//3 20//3
f 16//3 21//3 12//3
f 17//3 12//3 22//3
f 12//3 23//3 22//3
f 12//3 11//3 23//3
f 24//3 25//3 26//3
f 26//3 25//3 27//3
f 25//3 28//3 27//3
f 25//3 29//3 28//3
f 29//3 25//3 30//3
f 25//3 31//3 30//3
f 25//3 32//3 31//3
f 32//3 25//3 33//3
f 25//3 34//3 33//3
f 25//3 10//3 34//3
f 10//3 35//3 34//3
f 10//3 36//3 35//3
f 37//3 15//3 38//3
f 15//3 39//3 38//3
f 15//3 12//3 39//3
f 12//3 40//3 39//3
f 12//3 41//3 40//3
f 41//3 12//3 42//3
f 12//3 43//3 42//3
f 12//3 21//3 43//3
f 36//3 10//3 44//3
f 10//3 45//3 44//3
f 10//3 46//3 45//3
f 46//3 10//3 47//3
f 10//3 48//3 47//3
f 10//3 15//3 48//3
f 15//3 49//3 48//3
f 49//3 15//3 50//3
f 15//3 51//3 50//3
f 15//3 52//3 51//3
f 20//3 53//3 18//3
f 53//3 9//3 18//3
f 53//3 54//3 9//3
f 54//3 14//3 9//3
f 54//3 19//3 14//3
f 19//3 55//3 14//3
f 19//3 18//3 55//3
f 18//3 12//3 55//3
f 18//3 25//3 12//3
f 25//3 13//3 12//3
f 25//3 24//3 13//3
f 52//3 15//3 56//3
f 15//3 57//3 56//3
f 15//3 37//3 57//3
f 58//4 59//4 18//4
f 59//4 25//4 18//4
f 59//4 60//4 25//4
f 60//4 7//4 25//4
f 60//4 61//4 7//4
f 61//4 5//4 7//4
f 61//4 58//4 5//4
f 58//4 18//4 5//4
f 9//5 1//5 18//5
f 1//5 5//5 18//5
f 25//6 7//6 10//6
f 7//6 8//6 10//6
f 62//1 63//1 64//1
f 63//1 65//1 64//1
f 63//1 66//1 65//1
f 66//1 67//1 65//1
f 68//1 67//1 59//1
f 67//1 69//1 59//1
f 67//1 66//1 69//1
f 68//1 59//1 64//1
f 59//1 62//1 64//1
f 59//1 58//1 62//1
f 58//1 70//1 62//1
f 58//1 66//1 70//1
f 66//1 71//1 70//1
f 66//1 63//1 71//1
f 66//6 58//6 72//6
f 58//6 61//6 72//6
f 73//3 74//3 75//3
f 74//3 72//3 75//3
f 75//3 72//3 76//3
f 72//3 77//3 76//3
f 72//3 61//3 77//3
f 61//3 73//3 77//3
f 61//3 60//3 73//3
f 60//3 74//3 73//3
f 74//5 60//5 69//5
f 60//5 59//5 69//5
f 74//4 69//4 72//4
f 69//4 66//4 72//4
f 15//4 14//4 67//4
f 14//4 65//4 67//4
f 14//6 55//6 65//6
f 55//6 64//6 65//6
f 55//2 12//2 64//2
f 12//2 68//2 64//2
f 12//5 15//5 68//5
f 15//5 67//5 68//5
f 54//4 53//4 63//4
f 53//4 71//4 63//4
f 53//6 20//6 71//6
f 20//6 70//6 71//6
f 20//2 19//2 70//2
f 19//2 62//2 70//2
f 19//5 54//5 62//5
f 54//5 63//5 62//5
f 6//2 4//2 73//2
f 4//2 77//2 73//2
f 4//6 3//6 77//6
f 3//6 76//6 77//6
f 3//4 2//4 76//4
f 2//4 75//4 76//4
f 2//5 6//5 75//5
f 6//5 73//5 75//5
f 78//7 79//7 13//7
f 79//7 11//7 13//7
f 79//8 80//8 11//8
f 80//8 23//8 11//8
f 80//9 81//9 23//9
f 81//9 22//9 23//9
f 81//10 82//10 22//10
f 82//10 17//10 22//10
f 82//11 83//11 17//11
f 83//11 16//11 17//11
f 83//12 84//12 16//12
f 84//12 21//12 16//12
f 84//13 85//13 21//13
f 85//13 43//13 21//13
f 85//14 86//14 43//14
f 86//14 42//14 43//14
f 86//15 87//15 42//15
f 87//15 41//15 42//15
f 87//16 88//16 41//16
f 88//16 40//16 41//16
f 88//17 89//17 40//17
f 89//17 39//17 40//17
f 89//18 90//18 39//18
f 90//18 38//18 39//18
f 90//19 91//19 38//19
f 91//19 37//19 38//19
f 91//20 92//20 37//20
f 92//20 57//20 37//20
f 92//21 93//21 57//21
f 93//21 56//21 57//21
f 93//22 94//22 56//22
f 94//22 52//22 56//22
f 94//23 95//23 52//23
f 95//23 51//23 52//23
f 95//24 96//24 51//24
f 96//24 50//24 51//24
f 96//4 97//4 50//4
f 97//4 49//4 50//4
f 97//25 98//25 49//25
f 98//25 48//25 49//25
f 98//26 99//26 48//26
f 99//26 47//26 48//26
f 99//27 100//27 47//27
f 100//27 46//27 47//27
f 100//28 101//28 46//28
f 101//28 45//28 46//28
f 101//29 102//29 45//29
f 102//29 44//29 45//29
f 102//30 103//30 44//30
f 103//30 36//30 44//30
f 103//31 104//31 36//31
f 104//31 35//31 36//31
f 104//32 105//32 35//32
f 105//32 34//32 35//32
f 105//33 106//33 34//33
f 106//33 33//33 34//33
f 106//34 107//34 33//34
f 107//34 32//34 33//34
f 107//35 108//35 32//35
f 108//35 31//35 32//35
f 108//36 109//36 31//36
f 109//36 30//36 31//36
f 109//37 110//37 30//37
f 110//37 29//37 30//37
f 110//38 111//38 29//38
f 111//38 28//38 29//38
f 111//39 112//39 28//39
f 112//39 27//39 28//39
f 112//40 113//40 27//40
f 113//40 26//40 27//40
f 113//41 114//41 26//41
f 114//41 24//41 26//41
f 114//42 78//42 24//42
f 78//42 13//42 24//42
f 115//3 116//3 94//3
f 116//3 95//3 94//3
f 116//3 117//3 95//3
f 117//3 96//3 95//3
f 117//3 118//3 96//3
f 118//3 97//3 96//3
f 118//3 119//3 97//3
f 119//3 98//3 97//3
f 119//3 120//3 98//3
f 120//3 99//3 98//3
f 120//3 121//3 99//3
f 121//3 100//3 99//3
f 121//3 122//3 100//3
f 122//3 101//3 100//3
f 122//3 123//3 101//3
f 123//3 102//3 101//3
f 123//3 124//3 102//3
f 124//3 103//3 102//3
f 124//3 125//3 103//3
f 125//3 104//3 103//3
f 125//3 126//3 104//3
f 126//3 105//3 104//3
f 126//3 127//3 105//3
f 127//3 106//3 105//3
f 127//3 128//3 106//3
f 128//3 107//3 106//3
f 128//3 129//3 107//3
f 129//3 108//3 107//3
f 129//3 130//3 108//3
f 130//3 109//3 108//3
f 130//3 131//3 109//3
f 131//3 110//3 109//3
f 131//3 132//3 110//3
f 132//3 111//3 110//3
f 132//3 133//3 111//3
f 133//3 112//3 111//3
f 133//3 134//3 112//3
f 134//3 113//3 112//3
f 134//3 135//3 113//3
f 135//3 114//3 113//3
f 135//3 136//3 114//3
f 136//3 78//3 114//3
f 136//3 137//3 78//3
f 137//3 79//3 78//3
f 137//3 138//3 79//3
f 138//3 80//3 79//3
f 138//3 139//3 80//3
f 139//3 81//3 80//3
f 139//3 140//3 81//3
f 140//3 82//3 81//3
f 140//3 141//3 82//3
f 141//3 83//3 82//3
f 141//3 142//3 83//3
f 142//3 84//3 83//3
f 142//3 143//3 84//3
f 143//3 85//3 84//3
f 143//3 144//3 85//3
f 144//3 86//3 85//3
f 144//3 145//3 86//3
f 145//3 87//3 86//3
f 145//3 146//3 87//3
f 146//3 88//3 87//3
f 146//3 147//3 88//3
f 147//3 89//3 88//3
f 147//3 148//3 89//3
f 148//3 90//3 89//3
f 148//3 149//3 90//3
f 149//3 91//3 90//3
f 149//3 150//3 91//3
f 150//3 92//3 91//3
f 150//3 151//3 92//3
f 151//3 93//3 92//3
f 151//3 115//3 93//3
f 115//3 94//3 93//3
f 152//43 153//43 137//43
f 153//44 138//44 137//44
f 153//44 154//44 138//44
f 154//45 139//45 138//45
f 154//45 155//45 139//45
f 155//46 140//46 139//46
f 155//46 156//46 140//46
f 156//47 141//47 140//47
f 156//47 157//47 141//47
f 157//48 142//48 141//48
f 157//48 158//48 142//48
f 158//49 143//49 142//49
f 158//49 159//49 143//49
f 159//50 144//50 143//50
f 159//50 160//50 144//50
f 160//51 145//51 144//51
f 160//51 161//51 145//51
f 161//52 146//52 145//52
f 161//52 162//52 146//52
f 162//53 147//53 146//53
f 162//53 163//53 147//53
f 163//54 148//54 147//54
f 163//54 164//54 148//54
f 164//55 149//55 148//55
f 164//55 165//55 149//55
f 165//56 150//56 149//56
f 165//56 166//56 150//56
f 166//57 151//57 150//57
f 166//57 167//57 151//57
f 167//58 115//58 151//58
f 167//58 168//58 115//58
f 168//59 116//60 115//60
f 168//59 169//59 116//60
f 169//61 117//61 116//61
f 169//61 170//61 117//61
f 170//2 118//2 117//2
f 170//2 171//2 118//2
f 171//62 119//62 118//62
f 171//62 172//62 119//62
f 172//63 120//64 119//64
f 172//63 173//63 120//64
f 173//65 121//65 120//65
f 173//65 174//65 121//65
f 174//66 122//66 121//66
f 174//66 175//66 122//66
f 175//67 123//67 122//67
f 175//67 176//67 123//67
f 176//68 124//68 123//68
f 176//68 177//68 124//68
f 177//69 125//69 124//69
f 177//69 178//69 125//69
f 178//70 126//70 125//70
f 178//70 179//70 126//70
f 179//71 127//71 126//71
f 179//71 180//71 127//71
f 180//72 128//72 127//72
f 180//72 181//72 128//72
f 181//73 129//73 128//73
f 181//73 182//73 129//73
f 182//74 130//74 129//74
f 182//74 183//74 130//74
f 183//75 131//75 130//75
f 183//75 184//75 131//75
f 184//76 132//76 131//76
f 184//76 185//76 132//76
f 185//77 133//77 132//77
f 185//77 186//77 133//77
f 186//78 134//78 133//78
f 186//78 187//78 134//78
f 187//79 135//79 134//79
f 187//79 188//79 135//79
f 188//80 136//80 135//80
f 188//80 152//80 136//80
f 152//43 137//43 136//43
f 152//3 189//3 153//3
f 186//3 189//3 187//3
f 189//3 188//3 187//3
f 189//3 152//3 188//3
f 183//3 189//3 184//3
f 189//3 185//3 184//3
f 189//3 186//3 185//3
f 180//3 189//3 181//3
f 189//3 182//3 181//3
f 189//3 183//3 182//3
f 177//3 189//3 178//3
f 189//3 179//3 178//3
f 189//3 180//3 179//3
f 174//3 189//3 175//3
f 189//3 176//3 175//3
f 189//3 177//3 176//3
f 171//3 189//3 172//3
f 189//3 173//3 172//3
f 189//3 174//3 173//3
f 168//3 189//3 169//3
f 189//3 170//3 169//3
f 189//3 171//3 170//3
f 165//3 189//3 166//3
f 189//3 167//3 166//3
f 189//3 168//3 167//3
f 162//3 189//3 163//3
f 189//3 164//3 163//3
f 189//3 165//3 164//3
f 159//3 189//3 160//3
f 189//3 161//3 160//3
f 189//3 162//3 161//3
f 156//3 189//3 157//3
f 189//3 158//3 157//3
f 189//3 159//3 158//3
f 153//3 189//3 154//3
f 189//3 155//3 154//3
f 189//3 156//3 155//3
